
      <svg xmlns="http://www.w3.org/2000/svg" version="1.1" width="1277" height="625" style="display: block;"><polygon stroke-linejoin="round" stroke-miterlimit="1" stroke-width="1" points="543.5,340.5 440.5,339.5 429.5,340.5" style="fill:#ffffff;stroke:#ffffff;"></polygon><polygon stroke-linejoin="round" stroke-miterlimit="1" stroke-width="1" points="803.5,340.5 754.5,339.5 752.5,340.5" style="fill:#ffffff;stroke:#ffffff;"></polygon><polygon stroke-linejoin="round" stroke-miterlimit="1" stroke-width="1" points="843.5,287.5 796.5,289.5 824.5,294.5" style="fill:#ffffff;stroke:#ffffff;"></polygon><polygon stroke-linejoin="round" stroke-miterlimit="1" stroke-width="1" points="850.5,301.5 843.5,287.5 831.5,310.5" style="fill:#ffffff;stroke:#ffffff;"></polygon><polygon stroke-linejoin="round" stroke-miterlimit="1" stroke-width="1" points="850.5,302.5 850.5,301.5 831.5,310.5" style="fill:#ffffff;stroke:#ffffff;"></polygon><polygon stroke-linejoin="round" stroke-miterlimit="1" stroke-width="1" points="850.5,329.5 850.5,324.5 831.5,310.5" style="fill:#ffffff;stroke:#ffffff;"></polygon><polygon stroke-linejoin="round" stroke-miterlimit="1" stroke-width="1" points="850.5,329.5 831.5,310.5 803.5,340.5" style="fill:#fffdff;stroke:#fffdff;"></polygon><polygon stroke-linejoin="round" stroke-miterlimit="1" stroke-width="1" points="850.5,281.5 796.5,289.5 843.5,287.5" style="fill:#ffffff;stroke:#ffffff;"></polygon><polygon stroke-linejoin="round" stroke-miterlimit="1" stroke-width="1" points="850.5,281.5 733.5,281.5 796.5,289.5" style="fill:#ffe2ff;stroke:#ffe2ff;"></polygon><polygon stroke-linejoin="round" stroke-miterlimit="1" stroke-width="1" points="850.5,311.5 850.5,302.5 831.5,310.5" style="fill:#fff8ff;stroke:#fff8ff;"></polygon><polygon stroke-linejoin="round" stroke-miterlimit="1" stroke-width="1" points="850.5,314.5 831.5,310.5 850.5,324.5" style="fill:#ffffff;stroke:#ffffff;"></polygon><polygon stroke-linejoin="round" stroke-miterlimit="1" stroke-width="1" points="850.5,294.5 850.5,281.5 843.5,287.5" style="fill:#ffdeff;stroke:#ffdeff;"></polygon><polygon stroke-linejoin="round" stroke-miterlimit="1" stroke-width="1" points="850.5,294.5 843.5,287.5 850.5,301.5" style="fill:#ffdeff;stroke:#ffdeff;"></polygon><polygon stroke-linejoin="round" stroke-miterlimit="1" stroke-width="1" points="850.5,340.5 850.5,329.5 803.5,340.5" style="fill:#ffe7ff;stroke:#ffe7ff;"></polygon><polygon stroke-linejoin="round" stroke-miterlimit="1" stroke-width="1" points="850.5,312.5 831.5,310.5 850.5,314.5" style="fill:#fff1ff;stroke:#fff1ff;"></polygon><polygon stroke-linejoin="round" stroke-miterlimit="1" stroke-width="1" points="850.5,312.5 850.5,311.5 831.5,310.5" style="fill:#ffffff;stroke:#ffffff;"></polygon><polygon stroke-linejoin="round" stroke-miterlimit="1" stroke-width="1" points="843.5,287.5 824.5,294.5 831.5,310.5" style="fill:#ffe7ff;stroke:#ffe7ff;"></polygon><polygon stroke-linejoin="round" stroke-miterlimit="1" stroke-width="1" points="831.5,310.5 805.5,304.5 797.5,319.5" style="fill:#ffffff;stroke:#ffffff;"></polygon><polygon stroke-linejoin="round" stroke-miterlimit="1" stroke-width="1" points="831.5,310.5 797.5,319.5 803.5,340.5" style="fill:#ffe5ff;stroke:#ffe5ff;"></polygon><polygon stroke-linejoin="round" stroke-miterlimit="1" stroke-width="1" points="831.5,310.5 824.5,294.5 805.5,304.5" style="fill:#ffffff;stroke:#ffffff;"></polygon><polygon stroke-linejoin="round" stroke-miterlimit="1" stroke-width="1" points="803.5,340.5 790.5,335.5 754.5,339.5" style="fill:#ffffff;stroke:#ffffff;"></polygon><polygon stroke-linejoin="round" stroke-miterlimit="1" stroke-width="1" points="803.5,340.5 797.5,319.5 799.5,335.5" style="fill:#ffdeff;stroke:#ffdeff;"></polygon><polygon stroke-linejoin="round" stroke-miterlimit="1" stroke-width="1" points="824.5,294.5 796.5,289.5 805.5,304.5" style="fill:#ffe2ff;stroke:#ffe2ff;"></polygon><polygon stroke-linejoin="round" stroke-miterlimit="1" stroke-width="1" points="805.5,304.5 796.5,289.5 797.5,319.5" style="fill:#ffffff;stroke:#ffffff;"></polygon><polygon stroke-linejoin="round" stroke-miterlimit="1" stroke-width="1" points="799.5,335.5 797.5,319.5 790.5,335.5" style="fill:#ffe3ff;stroke:#ffe3ff;"></polygon><polygon stroke-linejoin="round" stroke-miterlimit="1" stroke-width="1" points="803.5,340.5 799.5,335.5 790.5,335.5" style="fill:#ffdeff;stroke:#ffdeff;"></polygon><polygon stroke-linejoin="round" stroke-miterlimit="1" stroke-width="1" points="797.5,319.5 796.5,289.5 737.5,298.5" style="fill:#ffe9ff;stroke:#ffe9ff;"></polygon><polygon stroke-linejoin="round" stroke-miterlimit="1" stroke-width="1" points="797.5,319.5 737.5,298.5 754.5,339.5" style="fill:#ffebff;stroke:#ffebff;"></polygon><polygon stroke-linejoin="round" stroke-miterlimit="1" stroke-width="1" points="797.5,319.5 754.5,339.5 790.5,335.5" style="fill:#ffeaff;stroke:#ffeaff;"></polygon><polygon stroke-linejoin="round" stroke-miterlimit="1" stroke-width="1" points="796.5,289.5 733.5,281.5 737.5,298.5" style="fill:#ffebff;stroke:#ffebff;"></polygon><polygon stroke-linejoin="round" stroke-miterlimit="1" stroke-width="1" points="597.5,340.5 591.5,339.5 543.5,340.5" style="fill:#ffdeff;stroke:#ffdeff;"></polygon><polygon stroke-linejoin="round" stroke-miterlimit="1" stroke-width="1" points="733.5,281.5 639.5,281.5 690.5,296.5" style="fill:#ffffff;stroke:#ffffff;"></polygon><polygon stroke-linejoin="round" stroke-miterlimit="1" stroke-width="1" points="752.5,340.5 737.5,298.5 729.5,301.5" style="fill:#ffffff;stroke:#ffffff;"></polygon><polygon stroke-linejoin="round" stroke-miterlimit="1" stroke-width="1" points="752.5,340.5 729.5,301.5 713.5,312.5" style="fill:#ffe2ff;stroke:#ffe2ff;"></polygon><polygon stroke-linejoin="round" stroke-miterlimit="1" stroke-width="1" points="754.5,339.5 737.5,298.5 752.5,340.5" style="fill:#ffdeff;stroke:#ffdeff;"></polygon><polygon stroke-linejoin="round" stroke-miterlimit="1" stroke-width="1" points="752.5,340.5 713.5,312.5 686.5,340.5" style="fill:#fff8ff;stroke:#fff8ff;"></polygon><polygon stroke-linejoin="round" stroke-miterlimit="1" stroke-width="1" points="737.5,298.5 733.5,281.5 729.5,301.5" style="fill:#ffffff;stroke:#ffffff;"></polygon><polygon stroke-linejoin="round" stroke-miterlimit="1" stroke-width="1" points="733.5,281.5 690.5,296.5 729.5,301.5" style="fill:#ffecff;stroke:#ffecff;"></polygon><polygon stroke-linejoin="round" stroke-miterlimit="1" stroke-width="1" points="729.5,301.5 690.5,296.5 713.5,312.5" style="fill:#ffdeff;stroke:#ffdeff;"></polygon><polygon stroke-linejoin="round" stroke-miterlimit="1" stroke-width="1" points="713.5,312.5 690.5,296.5 685.5,311.5" style="fill:#ffe9ff;stroke:#ffe9ff;"></polygon><polygon stroke-linejoin="round" stroke-miterlimit="1" stroke-width="1" points="713.5,312.5 685.5,311.5 686.5,340.5" style="fill:#ffe9ff;stroke:#ffe9ff;"></polygon><polygon stroke-linejoin="round" stroke-miterlimit="1" stroke-width="1" points="690.5,296.5 644.5,298.5 685.5,311.5" style="fill:#ffffff;stroke:#ffffff;"></polygon><polygon stroke-linejoin="round" stroke-miterlimit="1" stroke-width="1" points="690.5,296.5 639.5,281.5 644.5,298.5" style="fill:#ffffff;stroke:#ffffff;"></polygon><polygon stroke-linejoin="round" stroke-miterlimit="1" stroke-width="1" points="685.5,311.5 644.5,298.5 639.5,340.5" style="fill:#ffedff;stroke:#ffedff;"></polygon><polygon stroke-linejoin="round" stroke-miterlimit="1" stroke-width="1" points="686.5,340.5 685.5,311.5 639.5,340.5" style="fill:#fffeff;stroke:#fffeff;"></polygon><polygon stroke-linejoin="round" stroke-miterlimit="1" stroke-width="1" points="601.5,281.5 534.5,281.5 588.5,285.5" style="fill:#ffdeff;stroke:#ffdeff;"></polygon><polygon stroke-linejoin="round" stroke-miterlimit="1" stroke-width="1" points="644.5,298.5 600.5,293.5 625.5,340.5" style="fill:#ffebff;stroke:#ffebff;"></polygon><polygon stroke-linejoin="round" stroke-miterlimit="1" stroke-width="1" points="644.5,298.5 624.5,281.5 600.5,293.5" style="fill:#ffffff;stroke:#ffffff;"></polygon><polygon stroke-linejoin="round" stroke-miterlimit="1" stroke-width="1" points="644.5,298.5 639.5,281.5 624.5,281.5" style="fill:#ffdeff;stroke:#ffdeff;"></polygon><polygon stroke-linejoin="round" stroke-miterlimit="1" stroke-width="1" points="644.5,298.5 625.5,340.5 639.5,340.5" style="fill:#ffe3ff;stroke:#ffe3ff;"></polygon><polygon stroke-linejoin="round" stroke-miterlimit="1" stroke-width="1" points="625.5,340.5 600.5,293.5 596.5,297.5" style="fill:#ffffff;stroke:#ffffff;"></polygon><polygon stroke-linejoin="round" stroke-miterlimit="1" stroke-width="1" points="611.5,281.5 601.5,281.5 607.5,282.5" style="fill:#ffdeff;stroke:#ffdeff;"></polygon><polygon stroke-linejoin="round" stroke-miterlimit="1" stroke-width="1" points="624.5,281.5 611.5,281.5 600.5,293.5" style="fill:#ffffff;stroke:#ffffff;"></polygon><polygon stroke-linejoin="round" stroke-miterlimit="1" stroke-width="1" points="625.5,340.5 596.5,297.5 600.5,340.5" style="fill:#ffffff;stroke:#ffffff;"></polygon><polygon stroke-linejoin="round" stroke-miterlimit="1" stroke-width="1" points="543.5,340.5 458.5,333.5 440.5,339.5" style="fill:#ffffff;stroke:#ffffff;"></polygon><polygon stroke-linejoin="round" stroke-miterlimit="1" stroke-width="1" points="597.5,340.5 579.5,318.5 591.5,339.5" style="fill:#ffffff;stroke:#ffffff;"></polygon><polygon stroke-linejoin="round" stroke-miterlimit="1" stroke-width="1" points="600.5,340.5 579.5,318.5 597.5,340.5" style="fill:#ffdeff;stroke:#ffdeff;"></polygon><polygon stroke-linejoin="round" stroke-miterlimit="1" stroke-width="1" points="600.5,340.5 596.5,297.5 579.5,318.5" style="fill:#ffebff;stroke:#ffebff;"></polygon><polygon stroke-linejoin="round" stroke-miterlimit="1" stroke-width="1" points="611.5,281.5 607.5,282.5 600.5,293.5" style="fill:#ffdeff;stroke:#ffdeff;"></polygon><polygon stroke-linejoin="round" stroke-miterlimit="1" stroke-width="1" points="607.5,282.5 601.5,281.5 600.5,293.5" style="fill:#ffffff;stroke:#ffffff;"></polygon><polygon stroke-linejoin="round" stroke-miterlimit="1" stroke-width="1" points="596.5,297.5 585.5,295.5 579.5,318.5" style="fill:#ffffff;stroke:#ffffff;"></polygon><polygon stroke-linejoin="round" stroke-miterlimit="1" stroke-width="1" points="601.5,281.5 588.5,285.5 600.5,293.5" style="fill:#ffffff;stroke:#ffffff;"></polygon><polygon stroke-linejoin="round" stroke-miterlimit="1" stroke-width="1" points="600.5,293.5 588.5,285.5 596.5,297.5" style="fill:#ffe8ff;stroke:#ffe8ff;"></polygon><polygon stroke-linejoin="round" stroke-miterlimit="1" stroke-width="1" points="596.5,297.5 588.5,285.5 585.5,295.5" style="fill:#fff0ff;stroke:#fff0ff;"></polygon><polygon stroke-linejoin="round" stroke-miterlimit="1" stroke-width="1" points="591.5,339.5 579.5,318.5 543.5,340.5" style="fill:#ffffff;stroke:#ffffff;"></polygon><polygon stroke-linejoin="round" stroke-miterlimit="1" stroke-width="1" points="588.5,285.5 534.5,281.5 585.5,295.5" style="fill:#ffffff;stroke:#ffffff;"></polygon><polygon stroke-linejoin="round" stroke-miterlimit="1" stroke-width="1" points="585.5,295.5 534.5,281.5 579.5,318.5" style="fill:#ffffff;stroke:#ffffff;"></polygon><polygon stroke-linejoin="round" stroke-miterlimit="1" stroke-width="1" points="579.5,318.5 534.5,281.5 543.5,340.5" style="fill:#ffebff;stroke:#ffebff;"></polygon><polygon stroke-linejoin="round" stroke-miterlimit="1" stroke-width="1" points="543.5,340.5 518.5,293.5 458.5,333.5" style="fill:#fff8ff;stroke:#fff8ff;"></polygon><polygon stroke-linejoin="round" stroke-miterlimit="1" stroke-width="1" points="543.5,340.5 534.5,281.5 518.5,293.5" style="fill:#ffffff;stroke:#ffffff;"></polygon><polygon stroke-linejoin="round" stroke-miterlimit="1" stroke-width="1" points="534.5,281.5 523.5,281.5 518.5,293.5" style="fill:#ffffff;stroke:#ffffff;"></polygon><polygon stroke-linejoin="round" stroke-miterlimit="1" stroke-width="1" points="518.5,293.5 467.5,293.5 456.5,324.5" style="fill:#fffbff;stroke:#fffbff;"></polygon><polygon stroke-linejoin="round" stroke-miterlimit="1" stroke-width="1" points="518.5,293.5 456.5,324.5 458.5,333.5" style="fill:#ffffff;stroke:#ffffff;"></polygon><polygon stroke-linejoin="round" stroke-miterlimit="1" stroke-width="1" points="518.5,293.5 492.5,281.5 467.5,293.5" style="fill:#ffdfff;stroke:#ffdfff;"></polygon><polygon stroke-linejoin="round" stroke-miterlimit="1" stroke-width="1" points="523.5,281.5 492.5,281.5 518.5,293.5" style="fill:#ffe3ff;stroke:#ffe3ff;"></polygon><polygon stroke-linejoin="round" stroke-miterlimit="1" stroke-width="1" points="492.5,281.5 429.5,281.5 467.5,293.5" style="fill:#ffffff;stroke:#ffffff;"></polygon><polygon stroke-linejoin="round" stroke-miterlimit="1" stroke-width="1" points="467.5,293.5 429.5,305.5 456.5,324.5" style="fill:#ffecff;stroke:#ffecff;"></polygon><polygon stroke-linejoin="round" stroke-miterlimit="1" stroke-width="1" points="467.5,293.5 429.5,281.5 429.5,305.5" style="fill:#ffffff;stroke:#ffffff;"></polygon><polygon stroke-linejoin="round" stroke-miterlimit="1" stroke-width="1" points="456.5,324.5 429.5,311.5 429.5,315.5" style="fill:#ffe0ff;stroke:#ffe0ff;"></polygon><polygon stroke-linejoin="round" stroke-miterlimit="1" stroke-width="1" points="456.5,324.5 429.5,315.5 429.5,317.5" style="fill:#ffdeff;stroke:#ffdeff;"></polygon><polygon stroke-linejoin="round" stroke-miterlimit="1" stroke-width="1" points="456.5,324.5 429.5,305.5 429.5,311.5" style="fill:#ffffff;stroke:#ffffff;"></polygon><polygon stroke-linejoin="round" stroke-miterlimit="1" stroke-width="1" points="458.5,333.5 456.5,324.5 440.5,339.5" style="fill:#ffffff;stroke:#ffffff;"></polygon><polygon stroke-linejoin="round" stroke-miterlimit="1" stroke-width="1" points="456.5,324.5 429.5,326.5 440.5,339.5" style="fill:#ffffff;stroke:#ffffff;"></polygon><polygon stroke-linejoin="round" stroke-miterlimit="1" stroke-width="1" points="456.5,324.5 429.5,317.5 429.5,326.5" style="fill:#ffffff;stroke:#ffffff;"></polygon><polygon stroke-linejoin="round" stroke-miterlimit="1" stroke-width="1" points="440.5,339.5 429.5,327.5 429.5,332.5" style="fill:#ffdeff;stroke:#ffdeff;"></polygon><polygon stroke-linejoin="round" stroke-miterlimit="1" stroke-width="1" points="440.5,339.5 429.5,332.5 429.5,336.5" style="fill:#ffffff;stroke:#ffffff;"></polygon><polygon stroke-linejoin="round" stroke-miterlimit="1" stroke-width="1" points="440.5,339.5 429.5,336.5 429.5,340.5" style="fill:#ffffff;stroke:#ffffff;"></polygon><polygon stroke-linejoin="round" stroke-miterlimit="1" stroke-width="1" points="440.5,339.5 429.5,326.5 429.5,327.5" style="fill:#ffffff;stroke:#ffffff;"></polygon></svg>